<svg id="visual" viewBox="0 0 1920 1080" width="1920" height="1080" xmlns="http://www.w3.org/2000/svg" xmlns:xlink="http://www.w3.org/1999/xlink" version="1.1"><rect x="0" y="0" width="1920" height="1080" fill="#34455a"></rect><defs><linearGradient id="grad1_0" x1="43.8%" y1="0%" x2="100%" y2="100%"><stop offset="14.444444444444446%" stop-color="#761a1e" stop-opacity="1"></stop><stop offset="85.55555555555554%" stop-color="#761a1e" stop-opacity="1"></stop></linearGradient></defs><defs><linearGradient id="grad1_1" x1="43.8%" y1="0%" x2="100%" y2="100%"><stop offset="14.444444444444446%" stop-color="#761a1e" stop-opacity="1"></stop><stop offset="85.55555555555554%" stop-color="#5b3159" stop-opacity="1"></stop></linearGradient></defs><defs><linearGradient id="grad1_2" x1="43.8%" y1="0%" x2="100%" y2="100%"><stop offset="14.444444444444446%" stop-color="#34455a" stop-opacity="1"></stop><stop offset="85.55555555555554%" stop-color="#5b3159" stop-opacity="1"></stop></linearGradient></defs><defs><linearGradient id="grad2_0" x1="0%" y1="0%" x2="56.3%" y2="100%"><stop offset="14.444444444444446%" stop-color="#761a1e" stop-opacity="1"></stop><stop offset="85.55555555555554%" stop-color="#761a1e" stop-opacity="1"></stop></linearGradient></defs><defs><linearGradient id="grad2_1" x1="0%" y1="0%" x2="56.3%" y2="100%"><stop offset="14.444444444444446%" stop-color="#5b3159" stop-opacity="1"></stop><stop offset="85.55555555555554%" stop-color="#761a1e" stop-opacity="1"></stop></linearGradient></defs><defs><linearGradient id="grad2_2" x1="0%" y1="0%" x2="56.3%" y2="100%"><stop offset="14.444444444444446%" stop-color="#5b3159" stop-opacity="1"></stop><stop offset="85.55555555555554%" stop-color="#34455a" stop-opacity="1"></stop></linearGradient></defs><g transform="translate(1920, 0)"><path d="M0 1080C-45.2 804.6 -90.3 529.3 -273.5 473.7C-456.7 418.1 -777.9 582.3 -935.3 540C-1092.7 497.7 -1086.4 248.8 -1080 0L0 0Z" fill="#423e60"></path><path d="M0 720C-30.1 536.4 -60.2 352.9 -182.3 315.8C-304.5 278.8 -518.6 388.2 -623.5 360C-728.5 331.8 -724.2 165.9 -720 0L0 0Z" fill="#702141"></path><path d="M0 360C-15.1 268.2 -30.1 176.4 -91.2 157.9C-152.2 139.4 -259.3 194.1 -311.8 180C-364.2 165.9 -362.1 82.9 -360 0L0 0Z" fill="#761a1e"></path></g><g transform="translate(0, 1080)"><path d="M0 -1080C216.3 -1067.6 432.6 -1055.1 540 -935.3C647.4 -815.5 646.1 -588.3 717.9 -414.5C789.8 -240.7 934.9 -120.4 1080 0L0 0Z" fill="#423e60"></path><path d="M0 -720C144.2 -711.7 288.4 -703.4 360 -623.5C431.6 -543.7 430.7 -392.2 478.6 -276.3C526.5 -160.5 623.3 -80.2 720 0L0 0Z" fill="#702141"></path><path d="M0 -360C72.1 -355.9 144.2 -351.7 180 -311.8C215.8 -271.8 215.4 -196.1 239.3 -138.2C263.3 -80.2 311.6 -40.1 360 0L0 0Z" fill="#761a1e"></path></g></svg>