<svg id="visual" viewBox="0 0 900 600" width="900" height="600" xmlns="http://www.w3.org/2000/svg" xmlns:xlink="http://www.w3.org/1999/xlink" version="1.1"><rect x="0" y="0" width="900" height="600" fill="#0A0E12"></rect><defs><linearGradient id="grad1_0" x1="33.3%" y1="0%" x2="100%" y2="100%"><stop offset="20%" stop-color="#932125" stop-opacity="1"></stop><stop offset="80%" stop-color="#932125" stop-opacity="1"></stop></linearGradient></defs><defs><linearGradient id="grad1_1" x1="33.3%" y1="0%" x2="100%" y2="100%"><stop offset="20%" stop-color="#932125" stop-opacity="1"></stop><stop offset="80%" stop-color="#621b44" stop-opacity="1"></stop></linearGradient></defs><defs><linearGradient id="grad1_2" x1="33.3%" y1="0%" x2="100%" y2="100%"><stop offset="20%" stop-color="#251e39" stop-opacity="1"></stop><stop offset="80%" stop-color="#621b44" stop-opacity="1"></stop></linearGradient></defs><defs><linearGradient id="grad1_3" x1="33.3%" y1="0%" x2="100%" y2="100%"><stop offset="20%" stop-color="#251e39" stop-opacity="1"></stop><stop offset="80%" stop-color="#0a0e12" stop-opacity="1"></stop></linearGradient></defs><defs><linearGradient id="grad2_0" x1="0%" y1="0%" x2="66.7%" y2="100%"><stop offset="20%" stop-color="#932125" stop-opacity="1"></stop><stop offset="80%" stop-color="#932125" stop-opacity="1"></stop></linearGradient></defs><defs><linearGradient id="grad2_1" x1="0%" y1="0%" x2="66.7%" y2="100%"><stop offset="20%" stop-color="#621b44" stop-opacity="1"></stop><stop offset="80%" stop-color="#932125" stop-opacity="1"></stop></linearGradient></defs><defs><linearGradient id="grad2_2" x1="0%" y1="0%" x2="66.7%" y2="100%"><stop offset="20%" stop-color="#621b44" stop-opacity="1"></stop><stop offset="80%" stop-color="#251e39" stop-opacity="1"></stop></linearGradient></defs><defs><linearGradient id="grad2_3" x1="0%" y1="0%" x2="66.7%" y2="100%"><stop offset="20%" stop-color="#0a0e12" stop-opacity="1"></stop><stop offset="80%" stop-color="#251e39" stop-opacity="1"></stop></linearGradient></defs><g transform="translate(900, 0)"><path d="M0 378.6C-24.7 297.4 -49.4 216.3 -112.5 194.9C-175.6 173.5 -277.1 211.8 -327.9 189.3C-378.6 166.8 -378.6 83.4 -378.6 0L0 0Z" fill="#131827"></path><path d="M0 283.9C-18.5 223.1 -37 162.2 -84.4 146.1C-131.7 130.1 -207.8 158.9 -245.9 142C-284 125.1 -283.9 62.5 -283.9 0L0 0Z" fill="#421f44"></path><path d="M0 189.3C-12.3 148.7 -24.7 108.1 -56.2 97.4C-87.8 86.7 -138.6 105.9 -163.9 94.6C-189.3 83.4 -189.3 41.7 -189.3 0L0 0Z" fill="#7f1739"></path><path d="M0 94.6C-6.2 74.4 -12.3 54.1 -28.1 48.7C-43.9 43.4 -69.3 53 -82 47.3C-94.7 41.7 -94.6 20.8 -94.6 0L0 0Z" fill="#932125"></path></g><g transform="translate(0, 600)"><path d="M0 -378.6C29.8 -306.2 59.5 -233.8 122 -211.3C184.5 -188.8 279.6 -216.2 327.9 -189.3C376.1 -162.4 377.3 -81.2 378.6 0L0 0Z" fill="#131827"></path><path d="M0 -283.9C22.3 -229.6 44.6 -175.4 91.5 -158.5C138.4 -141.6 209.7 -162.1 245.9 -142C282.1 -121.8 283 -60.9 283.9 0L0 0Z" fill="#421f44"></path><path d="M0 -189.3C14.9 -153.1 29.8 -116.9 61 -105.7C92.2 -94.4 139.8 -108.1 163.9 -94.6C188 -81.2 188.7 -40.6 189.3 0L0 0Z" fill="#7f1739"></path><path d="M0 -94.6C7.4 -76.5 14.9 -58.5 30.5 -52.8C46.1 -47.2 69.9 -54 82 -47.3C94 -40.6 94.3 -20.3 94.6 0L0 0Z" fill="#932125"></path></g></svg>