<svg id="visual" viewBox="0 0 900 600" width="900" height="600" xmlns="http://www.w3.org/2000/svg" xmlns:xlink="http://www.w3.org/1999/xlink" version="1.1"><rect x="0" y="0" width="900" height="600" fill="#ffffff"></rect><defs><linearGradient id="grad1_0" x1="33.3%" y1="0%" x2="100%" y2="100%"><stop offset="20%" stop-color="#932125" stop-opacity="1"></stop><stop offset="80%" stop-color="#932125" stop-opacity="1"></stop></linearGradient></defs><defs><linearGradient id="grad1_1" x1="33.3%" y1="0%" x2="100%" y2="100%"><stop offset="20%" stop-color="#932125" stop-opacity="1"></stop><stop offset="80%" stop-color="#bf6e66" stop-opacity="1"></stop></linearGradient></defs><defs><linearGradient id="grad1_2" x1="33.3%" y1="0%" x2="100%" y2="100%"><stop offset="20%" stop-color="#e3b5b0" stop-opacity="1"></stop><stop offset="80%" stop-color="#bf6e66" stop-opacity="1"></stop></linearGradient></defs><defs><linearGradient id="grad1_3" x1="33.3%" y1="0%" x2="100%" y2="100%"><stop offset="20%" stop-color="#e3b5b0" stop-opacity="1"></stop><stop offset="80%" stop-color="#ffffff" stop-opacity="1"></stop></linearGradient></defs><defs><linearGradient id="grad2_0" x1="0%" y1="0%" x2="66.7%" y2="100%"><stop offset="20%" stop-color="#932125" stop-opacity="1"></stop><stop offset="80%" stop-color="#932125" stop-opacity="1"></stop></linearGradient></defs><defs><linearGradient id="grad2_1" x1="0%" y1="0%" x2="66.7%" y2="100%"><stop offset="20%" stop-color="#bf6e66" stop-opacity="1"></stop><stop offset="80%" stop-color="#932125" stop-opacity="1"></stop></linearGradient></defs><defs><linearGradient id="grad2_2" x1="0%" y1="0%" x2="66.7%" y2="100%"><stop offset="20%" stop-color="#bf6e66" stop-opacity="1"></stop><stop offset="80%" stop-color="#e3b5b0" stop-opacity="1"></stop></linearGradient></defs><defs><linearGradient id="grad2_3" x1="0%" y1="0%" x2="66.7%" y2="100%"><stop offset="20%" stop-color="#ffffff" stop-opacity="1"></stop><stop offset="80%" stop-color="#e3b5b0" stop-opacity="1"></stop></linearGradient></defs><g transform="translate(900, 0)"><path d="M0 387C-73.6 379.8 -147.2 372.5 -193 334.3C-238.8 296.1 -256.7 226.9 -287.5 166C-318.3 105.1 -362 52.6 -405.6 0L0 0Z" fill="#f2dad7"></path><path d="M0 290.3C-55.2 284.8 -110.4 279.4 -144.7 250.7C-179.1 222.1 -192.5 170.2 -215.6 124.5C-238.7 78.8 -271.5 39.4 -304.2 0L0 0Z" fill="#d2918a"></path><path d="M0 193.5C-36.8 189.9 -73.6 186.3 -96.5 167.1C-119.4 148 -128.4 113.4 -143.8 83C-159.2 52.6 -181 26.3 -202.8 0L0 0Z" fill="#aa4a45"></path><path d="M0 96.8C-18.4 94.9 -36.8 93.1 -48.2 83.6C-59.7 74 -64.2 56.7 -71.9 41.5C-79.6 26.3 -90.5 13.1 -101.4 0L0 0Z" fill="#932125"></path></g><g transform="translate(0, 600)"><path d="M0 -405.6C70.2 -391.9 140.4 -378.1 196.5 -340.3C252.6 -302.6 294.5 -240.7 311.8 -180C329 -119.3 321.5 -59.6 314 0L0 0Z" fill="#f2dad7"></path><path d="M0 -304.2C52.7 -293.9 105.3 -283.6 147.4 -255.3C189.4 -226.9 220.9 -180.5 233.8 -135C246.7 -89.5 241.1 -44.7 235.5 0L0 0Z" fill="#d2918a"></path><path d="M0 -202.8C35.1 -195.9 70.2 -189.1 98.2 -170.2C126.3 -151.3 147.3 -120.4 155.9 -90C164.5 -59.6 160.7 -29.8 157 0L0 0Z" fill="#aa4a45"></path><path d="M0 -101.4C17.6 -98 35.1 -94.5 49.1 -85.1C63.1 -75.6 73.6 -60.2 77.9 -45C82.2 -29.8 80.4 -14.9 78.5 0L0 0Z" fill="#932125"></path></g></svg>